<svg width="512" height="512" xmlns="http://www.w3.org/2000/svg">
 <defs>
  <filter id="svg_1_blur">
   <feGaussianBlur stdDeviation="0" in="SourceGraphic"/>
  </filter>
  <linearGradient spreadMethod="pad" y2="0" x2="1" y1="0" x1="0" id="svg_3">
   <stop offset="0" stop-opacity="0.99219" stop-color="#a3a8f0"/>
   <stop offset="1" stop-opacity="0.99609" stop-color="#696fdd"/>
  </linearGradient>
 </defs>
 <g>
  <title>Layer 1</title>
  <g stroke="null" filter="url(#svg_1_blur)" id="svg_1">
   <path stroke="null" fill="url(#svg_3)" id="svg_2" d="m256,5.68071c-136.95357,0 -248,111.33943 -248,248.65437c0,137.31494 111.04643,248.65437 248,248.65437c136.95357,0 248,-111.33943 248,-248.65437c0,-137.31494 -111.04643,-248.65437 -248,-248.65437zm119.90357,332.46421c1.66071,1.6651 2.54643,3.88522 2.54643,6.21636c0,2.33113 -0.88571,4.66227 -2.54643,6.21636l-23.91429,24.08839c-1.77143,1.7761 -3.98571,2.55315 -6.2,2.55315c-2.21429,0 -4.53929,-0.88805 -6.2,-2.55315l-83.58929,-83.92085l-83.47857,84.03186c-1.66071,1.7761 -3.98571,2.55315 -6.2,2.55315c-2.21429,0 -4.53929,-0.88805 -6.2,-2.55315l-23.91429,-24.08839c-1.66071,-1.6651 -2.54643,-3.88522 -2.54643,-6.21636c0,-2.33113 0.88571,-4.66227 2.54643,-6.21636l83.81072,-84.36488l-84.03214,-83.25481c-3.43214,-3.4412 -3.43214,-9.10253 0,-12.54372l23.91429,-24.08839c1.66071,-1.6651 3.875,-2.55315 6.2,-2.55315c2.325,0 4.53929,0.88805 6.2,2.55315l83.81072,82.92179l83.81072,-82.92179c1.66071,-1.6651 3.875,-2.55315 6.2,-2.55315c2.325,0 4.53929,0.88805 6.2,2.55315l23.91429,24.08839c3.43214,3.4412 3.43214,9.10253 0,12.54372l-84.03214,83.25481l83.7,84.25387z"/>
  </g>
 </g>
</svg>